HIERARCHY
ROOT Hips
{
    OFFSET   0.000000   0.000000   0.000000
    CHANNELS 6 Xposition Yposition Zposition Zrotation Xrotation Yrotation
    JOINT Chest
    {
        OFFSET   0.000000   8.007240   0.000000
        CHANNELS 3 Zrotation Xrotation Yrotation
        JOINT Chest2
        {
            OFFSET   0.000000  22.077100   0.000000
            CHANNELS 3 Zrotation Xrotation Yrotation
            JOINT Neck
            {
                OFFSET   0.000000  23.254800   0.000000
                CHANNELS 3 Zrotation Xrotation Yrotation
                JOINT Head
                {
                    OFFSET   0.000000  14.370000   1.956600
                    CHANNELS 3 Zrotation Xrotation Yrotation
                    End Site
                    {
                        OFFSET   0.000000  19.566000   0.000000
                    }
                }
            }
            JOINT LeftCollar
            {
                OFFSET   3.911900  19.017000  -0.467064
                CHANNELS 3 Zrotation Xrotation Yrotation
                JOINT LeftShoulder
                {
                    OFFSET  10.383700   0.000000   0.000000
                    CHANNELS 3 Zrotation Xrotation Yrotation
                    JOINT LeftElbow
                    {
                        OFFSET  26.662100   0.001476   0.000517
                        CHANNELS 3 Zrotation Xrotation Yrotation
                        JOINT LeftWrist
                        {
                            OFFSET  28.869000  -0.000025  -0.000106
                            CHANNELS 3 Zrotation Xrotation Yrotation
                            JOINT LeftFinger0
                            {
                                OFFSET   2.044660  -2.323460   3.252850
                                CHANNELS 3 Zrotation Xrotation Yrotation
                                JOINT LeftFinger01
                                {
                                    OFFSET   3.088130   0.000000   0.000000
                                    CHANNELS 3 Zrotation Xrotation Yrotation
                                    JOINT LeftFinger02
                                    {
                                        OFFSET   2.639460   0.000000   0.000000
                                        CHANNELS 3 Zrotation Xrotation Yrotation
                                        End Site
                                        {
                                            OFFSET   2.582190   0.000000   0.000000
                                        }
                                    }
                                }
                            }
                            JOINT LeftFinger1
                            {
                                OFFSET   8.364480   0.000000   3.252850
                                CHANNELS 3 Zrotation Xrotation Yrotation
                                JOINT LeftFinger11
                                {
                                    OFFSET   4.646930   0.000000   0.000000
                                    CHANNELS 3 Zrotation Xrotation Yrotation
                                    JOINT LeftFinger12
                                    {
                                        OFFSET   2.323460   0.000000   0.000000
                                        CHANNELS 3 Zrotation Xrotation Yrotation
                                        End Site
                                        {
                                            OFFSET   2.273050   0.000000   0.000000
                                        }
                                    }
                                }
                            }
                            JOINT LeftFinger2
                            {
                                OFFSET   8.364490   0.000015   1.078090
                                CHANNELS 3 Zrotation Xrotation Yrotation
                                JOINT LeftFinger21
                                {
                                    OFFSET   5.111620   0.000000   0.000000
                                    CHANNELS 3 Zrotation Xrotation Yrotation
                                    JOINT LeftFinger22
                                    {
                                        OFFSET   2.788160   0.000016   0.000000
                                        CHANNELS 3 Zrotation Xrotation Yrotation
                                        End Site
                                        {
                                            OFFSET   2.727660   0.000000   0.000000
                                        }
                                    }
                                }
                            }
                            JOINT LeftFinger3
                            {
                                OFFSET   7.899780   0.000017  -1.078090
                                CHANNELS 3 Zrotation Xrotation Yrotation
                                JOINT LeftFinger31
                                {
                                    OFFSET   4.646930   0.000000   0.000000
                                    CHANNELS 3 Zrotation Xrotation Yrotation
                                    JOINT LeftFinger32
                                    {
                                        OFFSET   2.323470   0.000000   0.000000
                                        CHANNELS 3 Zrotation Xrotation Yrotation
                                        End Site
                                        {
                                            OFFSET   2.273050   0.000000   0.000000
                                        }
                                    }
                                }
                            }
                            JOINT LeftFinger4
                            {
                                OFFSET   7.435090   0.000000  -3.252850
                                CHANNELS 3 Zrotation Xrotation Yrotation
                                JOINT LeftFinger41
                                {
                                    OFFSET   3.717550   0.000000   0.000000
                                    CHANNELS 3 Zrotation Xrotation Yrotation
                                    JOINT LeftFinger42
                                    {
                                        OFFSET   1.858770   0.000000   0.000000
                                        CHANNELS 3 Zrotation Xrotation Yrotation
                                        End Site
                                        {
                                            OFFSET   1.818440   0.000000   0.000000
                                        }
                                    }
                                }
                            }
                        }
                    }
                }
            }
            JOINT RightCollar
            {
                OFFSET  -3.911900  19.017000  -0.467063
                CHANNELS 3 Zrotation Xrotation Yrotation
                JOINT RightShoulder
                {
                    OFFSET -10.383700   0.000019   0.000000
                    CHANNELS 3 Zrotation Xrotation Yrotation
                    JOINT RightElbow
                    {
                        OFFSET -26.662100   0.001175   0.000102
                        CHANNELS 3 Zrotation Xrotation Yrotation
                        JOINT RightWrist
                        {
                            OFFSET -28.869000   0.000016  -0.000079
                            CHANNELS 3 Zrotation Xrotation Yrotation
                            JOINT RightFinger0
                            {
                                OFFSET  -2.044660  -2.323490   3.252850
                                CHANNELS 3 Zrotation Xrotation Yrotation
                                JOINT RightFinger01
                                {
                                    OFFSET  -3.088140   0.000000   0.000000
                                    CHANNELS 3 Zrotation Xrotation Yrotation
                                    JOINT RightFinger02
                                    {
                                        OFFSET  -2.639460   0.000000   0.000000
                                        CHANNELS 3 Zrotation Xrotation Yrotation
                                        End Site
                                        {
                                            OFFSET  -2.582190   0.000000   0.000000
                                        }
                                    }
                                }
                            }
                            JOINT RightFinger1
                            {
                                OFFSET  -8.364480   0.000000   3.252850
                                CHANNELS 3 Zrotation Xrotation Yrotation
                                JOINT RightFinger11
                                {
                                    OFFSET  -4.646930   0.000000   0.000000
                                    CHANNELS 3 Zrotation Xrotation Yrotation
                                    JOINT RightFinger12
                                    {
                                        OFFSET  -2.323470   0.000000   0.000000
                                        CHANNELS 3 Zrotation Xrotation Yrotation
                                        End Site
                                        {
                                            OFFSET  -2.273050   0.000000   0.000000
                                        }
                                    }
                                }
                            }
                            JOINT RightFinger2
                            {
                                OFFSET  -8.364480   0.000000   1.078090
                                CHANNELS 3 Zrotation Xrotation Yrotation
                                JOINT RightFinger21
                                {
                                    OFFSET  -5.111620   0.000000   0.000000
                                    CHANNELS 3 Zrotation Xrotation Yrotation
                                    JOINT RightFinger22
                                    {
                                        OFFSET  -2.788160   0.000000   0.000000
                                        CHANNELS 3 Zrotation Xrotation Yrotation
                                        End Site
                                        {
                                            OFFSET  -2.727660   0.000000   0.000000
                                        }
                                    }
                                }
                            }
                            JOINT RightFinger3
                            {
                                OFFSET  -7.899780   0.000000  -1.078090
                                CHANNELS 3 Zrotation Xrotation Yrotation
                                JOINT RightFinger31
                                {
                                    OFFSET  -4.646930   0.000000   0.000000
                                    CHANNELS 3 Zrotation Xrotation Yrotation
                                    JOINT RightFinger32
                                    {
                                        OFFSET  -2.323470   0.000000   0.000000
                                        CHANNELS 3 Zrotation Xrotation Yrotation
                                        End Site
                                        {
                                            OFFSET  -2.273050   0.000000   0.000000
                                        }
                                    }
                                }
                            }
                            JOINT RightFinger4
                            {
                                OFFSET  -7.435090   0.000000  -3.252850
                                CHANNELS 3 Zrotation Xrotation Yrotation
                                JOINT RightFinger41
                                {
                                    OFFSET  -3.717550   0.000000   0.000000
                                    CHANNELS 3 Zrotation Xrotation Yrotation
                                    JOINT RightFinger42
                                    {
                                        OFFSET  -1.858770   0.000000   0.000000
                                        CHANNELS 3 Zrotation Xrotation Yrotation
                                        End Site
                                        {
                                            OFFSET  -1.818440   0.000000   0.000000
                                        }
                                    }
                                }
                            }
                        }
                    }
                }
            }
        }
    }
    JOINT LeftHip
    {
        OFFSET   9.783040   0.000000   0.000000
        CHANNELS 3 Zrotation Xrotation Yrotation
        JOINT LeftKnee
        {
            OFFSET   0.000032 -41.789100  -0.002222
            CHANNELS 3 Zrotation Xrotation Yrotation
            JOINT LeftAnkle
            {
                OFFSET   0.000087 -41.133200  -0.000135
                CHANNELS 3 Zrotation Xrotation Yrotation
                JOINT LeftToe
                {
                    OFFSET   0.000000  -6.358960  14.674500
                    CHANNELS 3 Zrotation Xrotation Yrotation
                    End Site
                    {
                        OFFSET   0.000000   0.000000   3.913200
                    }
                }
            }
        }
    }
    JOINT RightHip
    {
        OFFSET  -9.783040   0.000000   0.000000
        CHANNELS 3 Zrotation Xrotation Yrotation
        JOINT RightKnee
        {
            OFFSET   0.000047 -41.789100  -0.000896
            CHANNELS 3 Zrotation Xrotation Yrotation
            JOINT RightAnkle
            {
                OFFSET  -0.000117 -41.133300  -0.000248
                CHANNELS 3 Zrotation Xrotation Yrotation
                JOINT RightToe
                {
                    OFFSET   0.000000  -6.358970  14.674500
                    CHANNELS 3 Zrotation Xrotation Yrotation
                    End Site
                    {
                        OFFSET   0.000000   0.000000   3.913200
                    }
                }
            }
        }
    }
}
MOTION
Frames: 6
Frame Time:   0.016667
 -1.502570  89.481200   1.202940  -2.597700 -10.079000   0.195635   1.270520   4.656930  -1.151710   2.648110   9.286020  -2.419020   3.030890   0.982537  -0.055226   4.984520   1.975470   6.983650  -1.907290   2.224970   0.715797 -75.997700  14.624000  -2.784930  -1.965780  -3.305480 -13.282000  11.745000  -4.201440  -5.027640  40.980500  24.725500 -55.974100 -21.859200   0.049878   0.021895  -5.928990   0.022059   0.015980 -24.635000   2.468030  -5.363860 -20.250300  -0.078447   0.050937 -14.175200  -0.078573   0.027501 -27.552100  -0.124737   0.239940 -29.419500  -0.058451   0.059345 -19.593400  -0.046929   0.027593 -26.191100  -0.188696   0.383017 -26.191700  -0.064473   0.079765 -17.443500  -0.054906   0.036920 -25.138700  -0.181641   0.386379 -37.709000  -0.116369   0.038227 -25.114200  -0.080932  -0.017703   2.915390  -3.481350   2.095610  25.315400 -16.252200  46.509400 -48.510600 -22.004700  59.403300 -32.149600  22.629000  23.047600 -53.535000  50.676300  99.983600 -17.922400  -0.000865  -0.002005 -13.961200   0.002952  -0.000822  12.831700  -0.125350  -1.305480  10.501800   0.017898  -0.092942   7.335150  -0.002258  -0.064913  18.506300  -0.250157  -1.190930  14.222300   0.009365  -0.165459   9.460480  -0.033370  -0.101158  12.216400  -0.471101  -2.517610  12.222900   0.041910  -0.129556   8.140460   0.005496  -0.084802  11.034800  -0.441633  -2.529130  16.566900   0.044992  -0.134861  11.033500   0.001967  -0.088752   3.044470  12.631200   1.681380   0.637024   0.014432  12.807700  -1.703960  -2.771690   0.990188  -0.000000   0.000000  -0.000000   3.156060  13.044400  -5.335990   0.529379   0.570453 -16.806200   0.148992  -3.961990   1.533100  -0.000000   0.000000   0.000000
 -1.493700  89.475500   1.224660  -2.599690 -10.045100   0.182711   1.268540   4.644600  -1.147000   2.643490   9.261530  -2.409140   3.026780   0.988589  -0.055245   4.978480   1.987810   6.973720  -1.921190   2.243920   0.726769 -76.006300  14.612200  -2.781200  -1.964860  -3.300430 -13.291900  11.756200  -4.218370  -5.017680  40.975700  24.724000 -55.969600 -21.867500   0.047960   0.021191  -5.933770   0.021269   0.015339 -24.652100   2.464800  -5.353360 -20.264200  -0.078976  -0.001424 -14.184900  -0.050538  -0.015135 -27.551800  -0.132558   0.254134 -29.436300  -0.055896   0.081048 -19.604600  -0.051715   0.040685 -26.203200  -0.195235   0.396723 -26.203800  -0.062167   0.081558 -17.451700  -0.054991   0.040032 -25.147100  -0.187894   0.400245 -37.721600  -0.116554   0.044317 -25.122600  -0.082005  -0.011775   2.915330  -3.461790   2.104610  25.240300 -16.222900  46.543200 -48.659800 -22.362300  59.326800 -31.790900  22.283100  22.363900 -53.404300  50.599000  99.809200 -17.917700  -0.000754  -0.002205 -13.958900   0.002975  -0.000889  21.202100  -0.254977  -0.831604  17.353900   0.013068  -0.116183  12.128700  -0.013315  -0.078916  24.404000  -0.222542  -0.665128  26.543900  -0.006562  -0.199940  17.667300  -0.055160  -0.115320  19.615700  -1.021670  -2.711270  21.591100   0.010276  -0.152050  14.379700  -0.024082  -0.091166  17.622300  -0.933449  -2.770680  26.458200   0.013443  -0.150180  17.621100  -0.025467  -0.090621   3.038740  12.598900   1.678480   0.634196   0.034774  12.815300  -1.701830  -2.799350   1.002480  -0.000000   0.000000  -0.000000   3.145160  13.025200  -5.335970   0.536645   0.559459 -16.801700   0.153426  -3.960320   1.547330  -0.000000   0.000000  -0.000000
 -1.484420  89.469900   1.247000  -2.599670 -10.006400   0.178159   1.267150   4.626640  -1.147950   2.640360   9.225650  -2.410380   3.022310   1.000880  -0.055263   4.971310   2.012590   6.972870  -1.934580   2.270660   0.766551 -76.026300  14.605200  -2.775510  -1.962200  -3.292920 -13.292200  11.747500  -4.219220  -5.007510  40.972700  24.716800 -55.974900 -21.865100   0.023469   0.009776  -5.934970   0.010577   0.006821 -24.661800   2.469800  -5.362300 -20.272400  -0.035925   0.000222 -14.190700  -0.016862  -0.005812 -27.551400  -0.135377   0.257204 -29.452000  -0.029922   0.040844 -19.615000  -0.025805   0.020978 -26.215600  -0.195559   0.398756 -26.216300  -0.033405   0.042032 -17.461300  -0.027755   0.021325 -25.151300  -0.188152   0.402350 -37.728000  -0.054425   0.022403 -25.126800  -0.038726  -0.005200   2.904100  -3.420320   2.131520  25.183800 -16.207300  46.584700 -48.823900 -22.675500  59.285400 -31.232900  21.299900  21.207200 -54.188700  50.614600 100.115000 -18.048400  -0.000637  -0.002407 -14.024200   0.003004  -0.000972  29.681800  -0.617929  -1.096230  24.295400  -0.001607  -0.090270  17.008200  -0.019618  -0.059012  29.085700  -0.623561  -1.168960  39.186500  -0.020202  -0.142785  26.140900  -0.051139  -0.074685  25.774100  -1.346250  -2.785790  31.925900  -0.025267  -0.112908  21.262700  -0.040517  -0.057990  24.432900  -1.253350  -2.862810  36.696500  -0.025154  -0.107987  24.439900  -0.041750  -0.052447   3.033290  12.559400   1.672490   0.630108   0.062099  12.819400  -1.700510  -2.827310   1.013820  -0.000000   0.000000   0.000000   3.133560  12.991900  -5.328860   0.542846   0.566639 -16.803000   0.159907  -3.967800   1.553150   0.000000   0.000000   0.000000
 -1.474760  89.464500   1.268400  -2.598600  -9.962860   0.177488   1.264660   4.606580  -1.148910   2.634840   9.185590  -2.411600   3.019870   1.016320  -0.055281   4.965580   2.043630   6.972040  -1.945140   2.295900   0.795869 -76.050400  14.591800  -2.765210  -1.960360  -3.287910 -13.292300  11.729100  -4.219380  -4.999440  40.967500  24.708000 -55.986900 -21.862800  -0.002761  -0.001035  -5.935350  -0.001164  -0.001148 -24.667400   2.474810  -5.371240 -20.277400   0.007127   0.001869 -14.194200   0.004471   0.003511 -27.551100  -0.136543   0.258647 -29.461200   0.003101   0.000640 -19.621100   0.002319   0.001272 -26.223100  -0.195606   0.399046 -26.223800   0.003593   0.002508 -17.467400   0.002409   0.002619 -25.153000  -0.188189   0.402651 -37.730500   0.007703   0.000489 -25.128500   0.004553   0.003265   2.890480  -3.391680   2.150810  25.116600 -16.199200  46.607700 -48.826400 -22.909500  59.305900 -30.998600  20.062100  20.077600 -55.706200  50.882400 101.103000 -18.179000  -0.000517  -0.002614 -14.089500   0.003037  -0.001059  37.203000  -1.151150  -1.583520  30.456800  -0.012380  -0.052286  21.425700  -0.022449  -0.031472  32.987800  -1.339040  -2.042260  50.218500  -0.027929  -0.066645  33.543100  -0.043105  -0.027829  30.602400  -1.689110  -2.973490  41.454700  -0.047375  -0.058065  27.608900  -0.047750  -0.020181  30.673800  -1.650740  -3.022600  46.081500  -0.049722  -0.054384  30.690300  -0.049290  -0.014272   3.027490  12.521300   1.668200   0.627403   0.079892  12.820800  -1.699570  -2.844140   1.021450   0.000000   0.000000  -0.000000   3.120770  12.952000  -5.321620   0.549491   0.577025 -16.804200   0.166916  -3.979380   1.554130   0.000000   0.000000  -0.000000
 -1.464630  89.459800   1.286490  -2.595600  -9.913140   0.185964   1.259060   4.586880  -1.148600   2.623080   9.146320  -2.410140   3.026720   1.034630  -0.055296   4.976010   2.080400   6.954100  -1.947390   2.308840   0.791395 -76.076400  14.555500  -2.744840  -1.964960  -3.289260 -13.292300  11.706700  -4.199920  -4.997130  40.963200  24.712900 -56.010400 -21.866200  -0.006708  -0.000955  -5.936210  -0.003180  -0.000681 -24.669400   2.473790  -5.368470 -20.279100  -0.006265  -0.001799 -14.195300  -0.003642  -0.001776 -27.551000  -0.138469   0.263074 -29.460400   0.015176   0.015860 -19.620500   0.004904   0.012557 -26.222600  -0.195501   0.398658 -26.223300   0.016665   0.016802 -17.466100   0.005823   0.013384 -25.152600  -0.188072   0.402267 -37.729900   0.007382   0.021878 -25.128100  -0.003332   0.017702   2.887430  -3.392260   2.145740  25.009100 -16.202400  46.589300 -48.636600 -22.986600  59.345800 -31.677200  18.695800  19.459100 -57.919100  51.941200 103.684000 -18.170100  -0.000401  -0.002827 -14.085000   0.003071  -0.001143  42.221500  -1.969090  -2.209820  34.577000  -0.008969  -0.029910  24.685600  -0.017499  -0.020830  36.497700  -2.195970  -3.016330  55.292400  -0.020646  -0.044494  36.929100  -0.031077  -0.020569  32.713700  -2.225860  -3.537050  47.772400  -0.029598  -0.034408  31.816400  -0.029546  -0.014776  35.295000  -2.368430  -3.445820  53.028900  -0.034294  -0.041071  35.317200  -0.035731  -0.014494   3.020490  12.503900   1.668800   0.624430   0.039877  12.815200  -1.695010  -2.835980   1.023690   0.000000   0.000000   0.000000   3.106690  12.909000  -5.324280   0.558591   0.582624 -16.796200   0.172986  -3.986330   1.545510  -0.000000   0.000000   0.000000
 -1.454280  89.456900   1.303110  -2.591060  -9.859570   0.202461   1.252810   4.567740  -1.148070   2.609950   9.108200  -2.407880   3.036600   1.052130  -0.055314   4.993380   2.115510   6.922340  -1.949980   2.316460   0.780080 -76.094700  14.516600  -2.721660  -1.973780  -3.291540 -13.292400  11.686700  -4.164770  -4.996200  40.963500  24.720800 -56.028400 -21.869700  -0.007272  -0.000395  -5.936700  -0.003468   0.000126 -24.670000   2.471880  -5.364290 -20.279300  -0.019658  -0.005467 -14.195500  -0.011756  -0.007063 -27.550600  -0.139918   0.268188 -29.454400   0.018013   0.031080 -19.616600   0.005273   0.023842 -26.219100  -0.195319   0.398000 -26.219800   0.019525   0.031096 -17.462400   0.006311   0.024150 -25.149700  -0.187866   0.401614 -37.725500   0.005135   0.043267 -25.125200  -0.011217   0.027260   2.886630  -3.396290   2.136470  24.927000 -16.208400  46.543600 -48.507900 -23.022800  59.369600 -32.697100  17.776700  19.221000 -59.090400  52.840900 105.754000 -18.125800  -0.000264  -0.003042 -14.062900   0.003108  -0.001230  44.339800  -2.505300  -2.613860  36.325800  -0.001926  -0.019607  26.188100  -0.010881  -0.017824  38.264200  -2.737600  -3.621620  56.608300  -0.007893  -0.041330  37.798600  -0.023061  -0.019533  33.106200  -2.737910  -4.195580  50.479000  -0.001732  -0.026451  33.619000  -0.011341  -0.014004  37.407700  -3.063380  -3.967360  56.252000  -0.011305  -0.039169  37.463800  -0.022171  -0.016046   3.013780  12.481600   1.671250   0.621448  -0.000139  12.804300  -1.690940  -2.827820   1.024000   0.000000   0.000000  -0.000000   3.091490  12.864200  -5.332990   0.569417   0.585161 -16.782700   0.178532  -3.993000   1.532580  -0.000000   0.000000   0.000000
